# xmcd
#
# Track frame offsets: 
#        150
#        13281
#        25762
#        39990
#        51327
#        63577
#        76334
#        88895
#        102410
#        112853
#        125785
#        135642
#        149342
#        161137
#        173698
#        185916
#        199797
#        213220
#        226444
#        239716
#        252078
#        265658
#        278277
#        290335
#        307193
#
# Disc length: 4263 seconds
#
# Revision: 0
# Processed by: cddbd v1.5.2PL0 Copyright (c) Steve Scherf et al.
# Submitted via: ExactAudioCopyFreeDBPlugin 1.0
#
DISCID=7210a519
DTITLE=Diverse - The Blues - CD1 Blues In The City
DYEAR=2014
DGENRE=Blues
TTITLE0=Junior Wells (with Muddy Waters) - Mannish Boy
TTITLE1=Howlin' Wolf - Spoonful
TTITLE2=Elmore James - Dust My Broom
TTITLE3=Coy "Hot Shot" Love - Wolf Call Boogie
TTITLE4=John Lee Hooker - Crawlin' King Snake
TTITLE5=Big Maceo - Worried Life Blues
TTITLE6=B.B. King - Everyday I have The Blues
TTITLE7=T-Bone Walker - Call It Stormy Monday
TTITLE8=Jimmy Reed - Take Out Some Insurance
TTITLE9=Arthur Crudup - That's All Right Mama
TTITLE10=Papa Lightfood - Wine Woman Whiskey
TTITLE11=Willie Dixon - Walkin' The Blues
TTITLE12=Louis Jordan - Slow Down
TTITLE13=Dr. Ross - Come Back Baby
TTITLE14=Little Walter - Juke
TTITLE15=Muddy Waters - Rollin' Stone
TTITLE16=Slim Harpo - I'm A King Bee
TTITLE17=Walter Horton - Easy
TTITLE18=Buddy Guy - This Is The End
TTITLE19=Lowell Fulson - Guitar Shuffle
TTITLE20=Sonny Boy Williamson II - Eyesight To The Blind
TTITLE21=Billy Boy Arnold - I Was Fooled
TTITLE22=Otis Rush - Double Trouble
TTITLE23=Otis Spann - It Must Have Been The Devil
TTITLE24=Aretha Franklin - Tuesday I Sing The Blues
EXTD=
EXTT0=
EXTT1=
EXTT2=
EXTT3=
EXTT4=
EXTT5=
EXTT6=
EXTT7=
EXTT8=
EXTT9=
EXTT10=
EXTT11=
EXTT12=
EXTT13=
EXTT14=
EXTT15=
EXTT16=
EXTT17=
EXTT18=
EXTT19=
EXTT20=
EXTT21=
EXTT22=
EXTT23=
EXTT24=
PLAYORDER=
